<?xml version="1.0" encoding="UTF-8"?>
<svg id="Layer_2" data-name="Layer 2" xmlns="http://www.w3.org/2000/svg" viewBox="0 0 135.11 110.17">
  <defs>
    <style>
      .cls-1 {
        fill: #231f20;
        stroke-width: 0px;
      }
    </style>
  </defs>
  <g id="Layer_1-2" data-name="Layer 1">
    <g>
      <path class="cls-1" d="M22.56,42.33c-2.15,10.73-3.58,19.76-5.29,26.91-1.82,7.58-3.71,11.66-6.31,11.91-.44.04-1.09,0-1.96-.15-.87-.14-1.5-.2-1.92-.17-.45.04-.65.99-.55,2.84.12,2.3.39,5.71,1.03,10.12.64,4.42,1.27,7.63,1.68,9.76.21,1.09.22,1.65.02,1.71-.59.16-1.48.33-2.64.47-1.16.14-1.99.28-2.53.42-.25.07-.55-.61-.85-2.05-1.15-5.51-2.65-13.9-2.84-25.6-.19-11.7.94-20.64,2.01-26.14C5.58,35.87,11.28,20.99,19.23,5.76c.21-.36.32-.54.53-.89.48-.81.89-1.26,1.2-1.34.77-.19,2,.12,3.77.99,1.05.51,2.03,1.1,2.93,1.75,1.48,1.08,1.2,4.72.06,10.99-1.18,6.45-3.06,14.62-5.16,25.08ZM16.15,42.46c2.38-10.76,3.37-16.02,1.37-16.57-1.41-.38-2.28-.17-2.65.62-.27.57-2.48,5.71-4.95,16.16-.35,1.49-.84,3.69-1.36,6.65-.53,2.96-.84,5.22-1.05,6.76-.14.99.71,1.55,2.6,1.65,2.27.13,3.82-5.17,6.05-15.28Z"/>
      <path class="cls-1" d="M34.27,69.78c-.04,8.56-.7,15.71-2.24,21.94-1.36,5.49-3.03,9.31-5.26,11.47-.08.07-.16.11-.21.13-.26.08-1.37-2.5-3-8.29-1.63-5.79-2.29-9.63-2.37-11.02-.03-.49.05-.82.22-.98,1.64-1.69,2.75-3.05,3.29-4.13,1.19-2.43,1.76-5.9,1.87-10.44.07-2.89-.19-6.1-.69-9.68-.88-6.08-1.03-9.51-1.04-10.18-.08-4.67.53-9.78,1.88-15.14,1.96-7.79,4.95-13.74,8.05-17.87,2.56-3.41,4.85-5.26,6.75-5.6.09,0,.16.02.21.04.11.06.02.56-.24,1.5-.82,2.87-2.01,7.94-2.77,15.6-.02.24-.05.44-.09.59-.15.66-.3.96-.48.91-.08-.02-.2-.12-.35-.29-.16-.17-.28-.27-.38-.3-.69-.21-1.45.27-2.29,1.43-.97,1.34-1.82,3.4-2.38,6.18-.5,2.5-.71,5.69-.42,9.51.48,6.87,1.13,10.43,1.18,10.77.5,4.66.79,9.24.77,13.84Z"/>
      <path class="cls-1" d="M57.69,76.65c.09,1.45.13,4.11.13,7.81,0,4.03-.09,6.31-.24,7.07-.12.61-.33.96-.6,1.03-.12.03-.31.04-.59.02-.96-.05-3.74.52-8.25,1.72-.98.26-2.44.63-4.36,1.11-1.92.48-3.34.84-4.29,1.1-.41.11-.67-.36-.78-1.43-.43-4.13-.97-10.5-1.06-19.61-.09-9.11.3-16.1.58-20.63.28-4.61.76-13.27,2.87-25.15.54-3.06,1.4-7.6,2.89-13.37.08-.31.12-.46.2-.76.21-.83.46-1.24.67-1.13.58.29,1.43.8,2.57,1.53,1.14.73,2.02,1.24,2.62,1.54.59.29,1.49.66,2.7,1.12,1.21.46,2.1.84,2.69,1.14.42.21.59,1,.58,2.31,0,.77-.09,3.08-.12,7.01-.03,3.94,0,6.38,0,7.24,0,.72-.12,1.05-.33.99-.06-.02-.18-.06-.33-.14-2.81-1.49-5.24-2.57-7.43-3.16-.55-.15-.93.22-1.16,1.11-.1.43-.28,1.84-.5,4.26-.23,2.54-.23,4.26-.06,5.12.15.75.5,1.16,1.05,1.25.11.02.34.03.68.02.34,0,.62.01.83.05,1.46.23,2.94.34,4.44.33.13-.01.47-.03.96-.11.38-.06.71-.09.94-.05.28.05.42.47.43,1.28,0-.74-.11,1.91-.18,8.05-.03,2.82.01,5.67.12,8.52.03.71-.15,1.07-.52,1.07-.71-.22-1.06-.33-1.76-.55-.74-.22-2.42-.35-5.01-.37-.81,0-1.22,0-2.03-.01-.52,0-.83.38-.91,1.16-.01.19-.02,1.39.02,3.6.05,2.95.18,4.84.34,5.67.27,1.43,1.15,2.19,2.61,2.31-.03,0,.93-.09,2.88-.28.7-.07,1.73-.34,3.09-.8,1.36-.46,2.39-.71,3.08-.77.29-.03.47.58.55,1.79Z"/>
      <path class="cls-1" d="M83.12,67.09c1.1,6.88.85,11.06.09,13.37-1.39,4.22-5.17,6.94-10.92,8.48-2.6.7-4.61.85-6.04.37-2.28-.78-3.88-3.17-4.83-7.46-.47-2.1-.9-5.99-1.27-12.01-.09-1.4-.19-3.48-.31-6.25-.12-2.77-.22-4.84-.29-6.21-.21-3.97-.6-9.95-.93-17.78-.33-7.83-.33-13.49-.25-17.16.02-.77.13-1.13.3-1.05.5.25,1.24.72,2.26,1.4,1.01.68,1.78,1.14,2.29,1.39.21.1.33.5.39,1.17.37,4.02.95,10.14,1.73,18.53.79,8.39,1.38,14.79,1.77,19.01.47,5.02.97,8.38,1.54,10.03.78,2.25,2.07,3.22,3.93,3.03,2.72-.28,3.91-3.09,3.18-8.92-.53-4.24-1.52-10.72-3.2-19.45-1.68-8.73-3.06-15.2-3.92-19.42-.18-.9-.16-1.31.04-1.2.49.25,1.21.55,2.16.92.94.36,1.65.68,2.13.93.24.12.45.54.67,1.2,1.05,3.17,2.62,8,4.4,14.52,1.77,6.52,2.85,11.4,3.55,14.62.19.89.48,2.22.83,3.99.35,1.77.57,3.07.71,3.94Z"/>
      <path class="cls-1" d="M107.94,61.46c3.16,5.92,3.07,10.3.76,13.91-2.06,3.22-5.45,5.13-9.04,6.09-.69.18-2.56.62-5.72,1.37-.59.14-1.48.33-2.68.56-1.2.23-2.11.42-2.72.56-.36.09-.51-.09-.46-.56.23-2.2.42-5.69-.14-11.08-.56-5.39-1.56-9.84-2.29-12.76-.77-3.05-2.1-7.7-4.31-13.99-2.21-6.29-4.07-11-5.28-14.08-.22-.57-.22-.86-.03-.84.48.06,1.4.48,2.71,1.19,2.49,1.34,4.14,2.32,5.01,2.95,2.27,1.63,4.82,3.87,7.66,6.66,2.67,2.62,5.84,5.91,9.11,9.72,3.09,3.61,5.68,7.03,7.42,10.3ZM101.44,60.51c-1.64-3.72-4-7.01-6.46-9.83-2.53-2.91-4.66-4.75-6.35-5.3-1.55-.5-2.09-.22-1.61.84.69,1.52,1.69,3.79,2.85,6.78,1.16,2.99,1.9,5.2,2.37,6.65.47,1.43,1.15,3.57,1.85,6.34.7,2.76,1.03,4.76,1.21,6.06.13.95,1.19,1.33,3.17,1.2,2.14-.14,3.74-1.35,4.41-3.69.63-2.22.29-5.13-1.44-9.04Z"/>
      <path class="cls-1" d="M131.42,66.34c4.02,4.23,3.36,6.41.52,7.94-2.89,1.55-6.73,2.28-9.46,2.79-2.71.51-3.66.47-5.35-2.06-1.65-2.47-3.73-6.93-7.09-12.98-3.37-6.07-6.86-11.58-9.45-15.39-2.65-3.9-3.68-5.1-1.5-3.76,2.17,1.34,7.09,4.76,14.23,9.62,7.03,4.79,14.11,9.64,18.09,13.83ZM126.17,65.02c-1.9-2.25-4.55-4.5-7.37-6.63-2.95-2.23-5.23-3.72-6.56-4.21-1.27-.47-1.15.25-.14,2.17.98,1.85,2.4,4.17,4.06,6.71,1.78,2.72,3.21,4.87,4.68,6.44,1.55,1.65,2.84,2.31,4.35,2.36,1.41.04,2.6-.54,2.98-1.85.37-1.25-.19-2.83-2-4.97Z"/>
    </g>
  </g>
</svg>